<?xml version="1.0" standalone="no"?>
<!DOCTYPE svg PUBLIC "-//W3C//DTD SVG 20010904//EN"
 "http://www.w3.org/TR/2001/REC-SVG-20010904/DTD/svg10.dtd">
<svg version="1.0" xmlns="http://www.w3.org/2000/svg"
 width="474.000000pt" height="474.000000pt" viewBox="0 0 474.000000 474.000000"
 preserveAspectRatio="xMidYMid meet">
<metadata>
Created by potrace 1.11, written by Peter Selinger 2001-2013
</metadata>
<g transform="translate(0.000000,474.000000) scale(0.100000,-0.100000)"
fill="#000000" stroke="none">
<path d="M2285 4658 c-16 -6 -66 -33 -110 -59 -44 -25 -97 -56 -118 -68 -21
-12 -98 -56 -170 -98 -73 -42 -149 -86 -169 -97 -34 -19 -409 -236 -538 -311
-30 -18 -100 -58 -155 -90 -55 -31 -113 -65 -130 -75 -16 -9 -106 -61 -198
-114 -215 -124 -246 -143 -280 -175 -33 -30 -77 -118 -80 -158 -1 -15 -9 -34
-17 -41 -13 -10 -13 -11 3 -6 21 8 23 -12 1 -20 -12 -5 -13 -10 -6 -19 18 -21
21 -95 4 -102 -10 -3 -11 -9 -4 -18 15 -19 21 -67 8 -67 -7 0 -7 -3 -1 -8 16
-12 12 -86 -5 -94 -13 -6 -13 -7 0 -7 12 -1 15 -15 15 -63 0 -35 -4 -66 -10
-70 -6 -5 -6 -8 1 -8 8 0 9 -13 4 -40 -4 -22 -3 -40 1 -40 5 0 9 -5 9 -11 0
-6 -8 -8 -17 -5 -15 5 -15 4 1 -9 20 -15 20 -15 0 -15 -12 0 -15 -3 -7 -8 6
-4 13 -27 16 -50 3 -36 2 -42 -12 -37 -11 3 -10 0 3 -10 20 -15 20 -15 0 -15
-12 0 -15 -3 -7 -8 6 -4 13 -27 16 -50 3 -36 2 -42 -12 -37 -11 3 -10 0 3 -10
20 -15 20 -15 0 -15 -11 0 -15 -3 -8 -8 19 -12 21 -36 5 -50 -9 -8 -10 -11 -3
-7 6 3 12 0 13 -7 4 -53 2 -65 -11 -76 -8 -8 -10 -11 -3 -8 18 9 21 -37 3 -52
-8 -8 -9 -11 -2 -7 8 4 12 -2 13 -17 0 -13 2 -33 3 -45 1 -12 -4 -25 -12 -28
-11 -4 -12 -8 -2 -20 6 -8 9 -19 5 -25 -3 -5 -3 -10 2 -10 4 0 8 -20 8 -45 0
-33 -4 -45 -15 -46 -13 0 -13 -1 0 -7 17 -8 22 -122 5 -134 -6 -5 -5 -8 3 -8
7 0 11 -4 8 -8 -6 -11 -8 -64 -4 -115 3 -29 0 -36 -11 -32 -10 4 -11 2 -3 -7
18 -22 21 -96 4 -103 -10 -4 -11 -9 -4 -18 18 -21 21 -95 4 -102 -10 -4 -11
-9 -4 -18 15 -18 22 -97 8 -97 -6 0 -4 -5 4 -10 12 -8 12 -10 -5 -10 -15 0
-16 -3 -7 -9 8 -4 13 -27 14 -52 1 -69 35 -147 87 -198 37 -37 165 -117 346
-217 11 -6 161 -93 333 -192 172 -100 332 -192 355 -206 23 -13 114 -65 202
-116 256 -149 276 -161 360 -208 44 -24 92 -53 107 -63 14 -11 28 -19 31 -19
3 0 33 -16 67 -37 52 -30 73 -37 134 -41 92 -6 122 4 256 83 119 70 287 166
310 178 8 4 33 18 55 32 22 14 58 35 80 46 33 18 224 128 275 159 22 13 121
70 565 325 419 241 471 278 509 363 11 23 23 42 28 42 4 0 8 486 8 1080 0 852
-3 1081 -12 1087 -7 4 -22 26 -33 47 -37 73 -71 104 -185 168 -25 14 -155 89
-289 167 -135 78 -246 141 -248 141 -1 0 -31 17 -65 38 -35 21 -83 50 -108 64
-25 14 -144 83 -265 153 -121 70 -238 138 -260 150 -22 12 -96 55 -165 95 -69
40 -138 81 -155 90 -16 9 -50 29 -75 44 -25 15 -61 34 -80 43 -43 20 -173 27
-215 11z"/>
</g>
</svg>
